<svg width="49" height="52" viewBox="0 0 49 52" fill="none" xmlns="http://www.w3.org/2000/svg">
<path d="M24.3545 47.446C37.8052 47.446 48.7091 36.8248 48.7091 23.723C48.7091 10.6211 37.8052 0 24.3545 0C10.9039 0 0 10.6211 0 23.723C0 36.8248 10.9039 47.446 24.3545 47.446Z" fill="url(#paint0_radial_54_981)"/>
<g style="mix-blend-mode:soft-light">
<path d="M24.3545 47.446C37.8052 47.446 48.7091 36.8248 48.7091 23.723C48.7091 10.6211 37.8052 0 24.3545 0C10.9039 0 0 10.6211 0 23.723C0 36.8248 10.9039 47.446 24.3545 47.446Z" fill="url(#paint1_radial_54_981)"/>
</g>
<g style="mix-blend-mode:soft-light">
<path d="M24.3545 47.446C37.8052 47.446 48.7091 36.8248 48.7091 23.723C48.7091 10.6211 37.8052 0 24.3545 0C10.9039 0 0 10.6211 0 23.723C0 36.8248 10.9039 47.446 24.3545 47.446Z" fill="url(#paint2_radial_54_981)"/>
</g>
<g style="mix-blend-mode:overlay">
<path d="M24.3545 47.446C37.8052 47.446 48.7091 36.8248 48.7091 23.723C48.7091 10.6211 37.8052 0 24.3545 0C10.9039 0 0 10.6211 0 23.723C0 36.8248 10.9039 47.446 24.3545 47.446Z" fill="url(#paint3_radial_54_981)" fill-opacity="0.7"/>
</g>
<mask id="mask0_54_981" style="mask-type:alpha" maskUnits="userSpaceOnUse" x="0" y="0" width="49" height="48">
<path d="M24.3545 47.446C37.8052 47.446 48.7091 36.8248 48.7091 23.723C48.7091 10.6211 37.8052 0 24.3545 0C10.9039 0 0 10.6211 0 23.723C0 36.8248 10.9039 47.446 24.3545 47.446Z" fill="white"/>
</mask>
<g mask="url(#mask0_54_981)">
<g filter="url(#filter0_f_54_981)">
<path d="M-0.138771 23.0464C-0.112326 22.7094 0.00155225 22.6756 0.0347667 23.0179C0.0716687 23.3981 -6.51628e-05 24.1626 0.0172052 24.6237C0.0629337 25.8448 0.255086 26.9064 0.453173 27.7699C1.09152 30.5528 1.97552 32.346 2.80005 33.8653C5.51032 38.8593 8.47919 41.3882 11.3754 43.2941C15.6208 46.0878 19.9007 46.9765 24.1841 47.165C24.2921 47.1697 24.3101 47.8552 24.2038 47.9445C24.0121 48.1054 23.7747 47.9457 23.5786 47.939C23.0152 47.9198 22.4517 47.8821 21.8883 47.8251C20.2178 47.656 18.5474 47.3116 16.8803 46.7576C12.3475 45.2512 7.46028 42.6718 3.19209 35.4069C2.92359 34.9499 2.65721 34.4687 2.3946 33.9517C2.18459 33.5382 1.97662 33.1047 1.77231 32.6411C1.10031 31.1163 -0.465679 27.213 -0.138771 23.0464ZM24.1871 47.9518C24.084 47.9549 24.0579 47.3159 24.1561 47.1832C24.3046 46.9827 24.5272 47.1478 24.6838 47.1383C25.3339 47.0987 25.984 47.04 26.6338 46.9605C28.4157 46.7425 30.1962 46.3704 31.9728 45.7973C36.3792 44.3759 41.1165 42.209 45.2703 35.5514C45.5347 35.1277 45.7968 34.6782 46.0554 34.195C46.8411 32.7266 48.8104 28.8287 48.5827 23.9831C48.5635 23.5746 48.6912 23.3299 48.7484 23.6803C48.8211 24.1265 48.7916 25.0567 48.7715 25.5516C48.7074 27.1368 48.4574 28.4773 48.1939 29.5599C47.3588 32.9908 46.1864 34.9801 45.1127 36.6411C41.6228 42.04 37.8324 44.2164 34.1474 45.7804C30.8421 47.1832 27.5118 47.8519 24.1871 47.9518Z" fill="#401C02"/>
</g>
<g filter="url(#filter1_f_54_981)">
<path d="M-0.138771 23.0464C-0.112326 22.7094 0.00155225 22.6756 0.0347667 23.0179C0.0716687 23.3981 -6.51628e-05 24.1626 0.0172052 24.6237C0.0629337 25.8448 0.255086 26.9064 0.453173 27.7699C1.09152 30.5528 1.97552 32.346 2.80005 33.8653C5.51032 38.8593 8.47919 41.3882 11.3754 43.2941C15.6208 46.0878 19.9007 46.9765 24.1841 47.165C24.2921 47.1697 24.3101 47.8552 24.2038 47.9445C24.0121 48.1054 23.7747 47.9457 23.5786 47.939C23.0152 47.9198 22.4517 47.8821 21.8883 47.8251C20.2178 47.656 18.5474 47.3116 16.8803 46.7576C12.3475 45.2512 7.46028 42.6718 3.19209 35.4069C2.92359 34.9499 2.65721 34.4687 2.3946 33.9517C2.18459 33.5382 1.97662 33.1047 1.77231 32.6411C1.10031 31.1163 -0.465679 27.213 -0.138771 23.0464ZM24.1871 47.9518C24.084 47.9549 24.0579 47.3159 24.1561 47.1832C24.3046 46.9827 24.5272 47.1478 24.6838 47.1383C25.3339 47.0987 25.984 47.04 26.6338 46.9605C28.4157 46.7425 30.1962 46.3704 31.9728 45.7973C36.3792 44.3759 41.1165 42.209 45.2703 35.5514C45.5347 35.1277 45.7968 34.6782 46.0554 34.195C46.8411 32.7266 48.8104 28.8287 48.5827 23.9831C48.5635 23.5746 48.6912 23.3299 48.7484 23.6803C48.8211 24.1265 48.7916 25.0567 48.7715 25.5516C48.7074 27.1368 48.4574 28.4773 48.1939 29.5599C47.3588 32.9908 46.1864 34.9801 45.1127 36.6411C41.6228 42.04 37.8324 44.2164 34.1474 45.7804C30.8421 47.1832 27.5118 47.8519 24.1871 47.9518Z" fill="#401C02"/>
</g>
</g>
<mask id="mask1_54_981" style="mask-type:alpha" maskUnits="userSpaceOnUse" x="0" y="0" width="49" height="48">
<path d="M24.3545 47.446C37.8052 47.446 48.7091 36.8248 48.7091 23.723C48.7091 10.6211 37.8052 0 24.3545 0C10.9039 0 0 10.6211 0 23.723C0 36.8248 10.9039 47.446 24.3545 47.446Z" fill="url(#paint4_radial_54_981)"/>
</mask>
<g mask="url(#mask1_54_981)">
<g filter="url(#filter2_f_54_981)">
<path d="M25.0377 41.8124C25.0781 41.7534 25.1286 41.7042 25.1791 41.655C25.4315 41.419 25.7647 41.2616 26.1182 41.2419C26.2394 41.2321 26.3605 41.2419 26.4817 41.2616L28.7841 41.655C28.2287 41.5567 27.8046 41.1731 27.6329 40.6911C27.5521 40.4649 27.5319 40.2288 27.5824 39.9829C27.6834 39.4419 28.0772 39.0288 28.572 38.8616C28.8043 38.7829 29.0466 38.7632 29.3092 38.8025L37.2564 40.1698C37.4381 40.1993 37.529 39.973 37.3876 39.8747L35.9032 38.8616C35.1257 38.3304 34.954 37.2287 35.5397 36.4123C36.1254 35.5959 37.2463 35.3599 38.0238 35.891L41.5682 38.3009C44.0726 39.5993 45.5671 42.3731 45.0521 45.2453L44.8097 46.5731C44.1937 49.947 41.0027 52.2782 37.5492 51.9732C37.4583 51.9732 37.3775 51.9634 37.2866 51.9536L28.5417 50.4486C27.7339 50.3109 27.1482 49.5437 27.2795 48.7666C27.3602 48.3043 27.6632 47.9404 28.057 47.7338C28.3398 47.5863 28.6629 47.5273 28.9961 47.5863L27.441 47.301C27.0169 47.2322 26.6736 46.9863 26.4514 46.6617C26.2595 46.3666 26.1687 46.0026 26.2293 45.6289C26.2999 45.2551 26.512 44.9403 26.8048 44.7239C27.1179 44.4879 27.5319 44.3797 27.9459 44.4485L25.9667 44.1043C25.1589 43.9665 24.6136 43.2092 24.765 42.4223C24.7953 42.196 24.8963 41.9895 25.0377 41.8124Z" fill="#A43C00"/>
<mask id="mask2_54_981" style="mask-type:alpha" maskUnits="userSpaceOnUse" x="24" y="35" width="22" height="17">
<path d="M25.0377 41.8124C25.0781 41.7534 25.1286 41.7042 25.1791 41.655C25.4315 41.419 25.7647 41.2616 26.1182 41.2419C26.2394 41.2321 26.3605 41.2419 26.4817 41.2616L28.7841 41.655C28.2287 41.5567 27.8046 41.1731 27.6329 40.6911C27.5521 40.4649 27.5319 40.2288 27.5824 39.9829C27.6834 39.4419 28.0772 39.0288 28.572 38.8616C28.8043 38.7829 29.0466 38.7632 29.3092 38.8025L37.2564 40.1698C37.4381 40.1993 37.529 39.973 37.3876 39.8747L35.9032 38.8616C35.1257 38.3304 34.954 37.2287 35.5397 36.4123C36.1254 35.5959 37.2463 35.3599 38.0238 35.891L41.5682 38.3009C44.0726 39.5993 45.5671 42.3731 45.0521 45.2453L44.8097 46.5731C44.1937 49.947 41.0027 52.2782 37.5492 51.9732C37.4583 51.9732 37.3775 51.9634 37.2866 51.9536L28.5417 50.4486C27.7339 50.3109 27.1482 49.5437 27.2795 48.7666C27.3602 48.3043 27.6632 47.9404 28.057 47.7338C28.3398 47.5863 28.6629 47.5273 28.9961 47.5863L27.441 47.301C27.0169 47.2322 26.6736 46.9863 26.4514 46.6617C26.2595 46.3666 26.1687 46.0026 26.2293 45.6289C26.2999 45.2551 26.512 44.9403 26.8048 44.7239C27.1179 44.4879 27.5319 44.3797 27.9459 44.4485L25.9667 44.1043C25.1589 43.9665 24.6136 43.2092 24.765 42.4223C24.7953 42.196 24.8963 41.9895 25.0377 41.8124Z" fill="url(#paint5_radial_54_981)"/>
</mask>
<g mask="url(#mask2_54_981)">
<g style="mix-blend-mode:color-burn" filter="url(#filter3_f_54_981)">
<path d="M42.1997 38.7612C41.2908 38.1808 40.3921 37.6005 39.4934 37.0103L38.1503 36.1152C38.0393 36.0365 37.9383 35.9775 37.8171 35.9185C37.6959 35.8693 37.5747 35.83 37.4536 35.8103C37.2011 35.771 36.9386 35.7906 36.6962 35.8595C36.2014 35.9972 35.7874 36.3611 35.5652 36.8136C35.3431 37.2661 35.3229 37.8071 35.5349 38.2694C35.6359 38.4956 35.7975 38.7022 36.0095 38.8497C36.2216 39.0071 36.4337 39.1743 36.6457 39.3415C37.0698 39.6759 37.4839 40.0104 37.8979 40.3546C37.4435 40.0596 36.9992 39.7645 36.5548 39.4497C36.3327 39.2923 36.1206 39.1448 35.8985 38.9874C35.6662 38.8202 35.4844 38.594 35.3633 38.3481C35.1209 37.8366 35.1411 37.2366 35.3936 36.7349C35.6359 36.2333 36.1004 35.8398 36.6558 35.6824C36.9285 35.6037 37.2213 35.5841 37.5041 35.6333C37.6454 35.6628 37.7868 35.7021 37.908 35.7611C38.0393 35.8201 38.1604 35.8988 38.2715 35.9775L39.5944 36.8923C40.4527 37.512 41.3312 38.1317 42.1997 38.7612Z" fill="#A43C00"/>
<path d="M38.1929 40.4142C37.2639 40.2765 36.3349 40.129 35.4159 39.9815L32.639 39.529C31.7099 39.3814 30.791 39.2241 29.862 39.0667L29.5187 39.0077C29.3975 38.988 29.2965 38.9683 29.1854 38.9683C28.9633 38.9683 28.7411 39.0077 28.5492 39.106C28.3574 39.2044 28.1756 39.3323 28.0443 39.5093C27.9131 39.6765 27.8222 39.8831 27.7818 40.0896C27.7414 40.2962 27.7616 40.5126 27.8222 40.7192C27.8828 40.9257 28.0039 41.1126 28.1554 41.27C28.3069 41.4274 28.4987 41.5454 28.7007 41.6143C28.8017 41.6536 28.9128 41.6634 29.0339 41.693L29.3773 41.752C30.2962 41.9192 31.2252 42.0667 32.1442 42.2438L34.911 42.7454C35.83 42.9225 36.759 43.0897 37.6779 43.2667C36.7489 43.129 35.8199 42.9815 34.9009 42.834L32.124 42.3815C31.1949 42.2339 30.276 42.0766 29.347 41.9192L29.0037 41.8602C28.8926 41.8405 28.7613 41.8208 28.6502 41.7815C28.418 41.7028 28.1958 41.5749 28.0241 41.3979C27.8525 41.2208 27.7111 41.0143 27.6404 40.7782C27.5697 40.5421 27.5495 40.2962 27.5899 40.0503C27.6303 39.8142 27.7414 39.5782 27.8929 39.3913C28.0443 39.1946 28.2463 39.047 28.4685 38.9388C28.6906 38.8306 28.9431 38.7814 29.1955 38.7913C29.3167 38.7913 29.448 38.8208 29.559 38.8306L29.9024 38.8896C30.8213 39.0568 31.7503 39.2044 32.6693 39.3814L35.4361 39.8831C36.345 40.07 37.274 40.2372 38.1929 40.4142Z" fill="#A43C00"/>
<path d="M34.8488 45.7255C34.4246 45.6664 34.0005 45.5976 33.5865 45.5386C33.1624 45.4697 32.7383 45.4107 32.3242 45.3418L29.7997 44.9386L28.5375 44.7222L28.2244 44.673L28.0629 44.6435C28.0124 44.6336 27.9619 44.6336 27.9114 44.6238C27.7094 44.6041 27.5075 44.6336 27.3257 44.7025C26.9521 44.8402 26.639 45.1353 26.5078 45.4992C26.4371 45.6861 26.4068 45.873 26.427 46.0697C26.4371 46.2664 26.4977 46.4533 26.5986 46.6206C26.7905 46.9648 27.1338 47.2206 27.5277 47.2993L28.7899 47.5156L30.0522 47.732L31.3144 47.9583L33.8289 48.4206C34.667 48.578 35.5051 48.7353 36.3433 48.8927C35.495 48.7648 34.6569 48.637 33.8087 48.4993L31.2841 48.096L30.0219 47.8894L28.7394 47.7124L27.4772 47.496C27.0329 47.4075 26.6289 47.1222 26.4068 46.7386C26.1846 46.355 26.1442 45.873 26.3058 45.45C26.4674 45.0369 26.8208 44.6927 27.2449 44.5451C27.457 44.4664 27.6892 44.4369 27.9114 44.4566C27.972 44.4566 28.0225 44.4664 28.0831 44.4763L28.2446 44.5058L28.5577 44.5648L29.8199 44.791L32.3343 45.2533C32.7585 45.332 33.1725 45.4107 33.5966 45.4894C34.0106 45.5582 34.4347 45.6468 34.8488 45.7255Z" fill="#A43C00"/>
<path d="M35.3643 42.8727C34.4353 42.735 33.5062 42.5874 32.5873 42.4399L29.8103 41.9874C28.8813 41.8399 27.9624 41.6825 27.0334 41.5251L26.69 41.4661C26.5689 41.4464 26.4679 41.4267 26.3568 41.4267C26.1346 41.4267 25.9125 41.4661 25.7206 41.5645C25.5288 41.6628 25.347 41.7907 25.2157 41.9677C25.0844 42.135 24.9936 42.3415 24.9532 42.5481C24.9128 42.7645 24.933 42.9809 24.9936 43.1874C25.0542 43.394 25.1753 43.5809 25.3268 43.7383C25.4783 43.8956 25.6701 44.0137 25.8721 44.0825C25.9731 44.1219 26.0842 44.1317 26.2053 44.1612L26.5487 44.2202C27.4676 44.3874 28.3966 44.535 29.3155 44.712L32.0824 45.2137C33.0013 45.3907 33.9304 45.558 34.8493 45.735C33.9203 45.5973 32.9912 45.4498 32.0723 45.3022L29.2953 44.8497C28.3663 44.7022 27.4474 44.5448 26.5184 44.3874L26.175 44.3284C26.064 44.3088 25.9327 44.2891 25.8216 44.2497C25.5894 44.1711 25.3672 44.0432 25.1955 43.8661C25.0239 43.6891 24.8825 43.4825 24.8118 43.2464C24.7411 43.0104 24.7209 42.7645 24.7613 42.5186C24.8017 42.2825 24.9128 42.0464 25.0643 41.8595C25.2157 41.6628 25.4177 41.5153 25.6398 41.4071C25.862 41.2989 26.1145 41.2497 26.3669 41.2595C26.4881 41.2595 26.6194 41.289 26.7304 41.2989L27.0738 41.3579C27.9927 41.5251 28.9217 41.6727 29.8406 41.8497L32.6075 42.3514C33.5264 42.5284 34.4454 42.6956 35.3643 42.8727Z" fill="#A43C00"/>
</g>
</g>
<path d="M23.6479 41.8114C23.6075 41.7524 23.557 41.7032 23.5065 41.6541C23.254 41.418 22.9208 41.2606 22.5674 41.2409C22.4462 41.2311 22.325 41.2409 22.2038 41.2606L19.9015 41.6541C20.4569 41.5557 20.881 41.1721 21.0527 40.6901C21.1334 40.4639 21.1536 40.2278 21.1032 39.9819C21.0022 39.4409 20.6083 39.0278 20.1135 38.8606C19.8813 38.7819 19.6389 38.7622 19.3764 38.8016L11.4292 40.1688C11.2474 40.1983 11.1565 39.9721 11.2979 39.8737L12.7823 38.8606C13.5599 38.3294 13.7316 37.2278 13.1459 36.4114C12.5602 35.595 11.4393 35.3589 10.6617 35.89L7.11731 38.2999C4.61299 39.5983 3.11847 42.3721 3.63348 45.2443L3.87583 46.5722C4.49181 49.946 7.68281 52.2772 11.1363 51.9723C11.2272 51.9723 11.308 51.9624 11.3989 51.9526L20.1438 50.4476C20.9517 50.3099 21.5374 49.5427 21.4061 48.7656C21.3253 48.3033 21.0224 47.9394 20.6285 47.7328C20.3458 47.5853 20.0227 47.5263 19.6894 47.5853L21.2445 47.3C21.6686 47.2312 22.012 46.9853 22.2341 46.6607C22.426 46.3656 22.5169 46.0017 22.4563 45.6279C22.3856 45.2541 22.1735 44.9394 21.8807 44.723C21.5677 44.4869 21.1536 44.3787 20.7396 44.4475L22.7188 44.1033C23.5267 43.9656 24.072 43.2082 23.9205 42.4213C23.8902 42.1951 23.7892 41.9885 23.6479 41.8114Z" fill="#A43C00"/>
<mask id="mask3_54_981" style="mask-type:alpha" maskUnits="userSpaceOnUse" x="3" y="35" width="21" height="17">
<path d="M23.6484 41.8114C23.608 41.7524 23.5575 41.7032 23.507 41.6541C23.2545 41.418 22.9213 41.2606 22.5679 41.2409C22.4467 41.2311 22.3255 41.2409 22.2043 41.2606L19.902 41.6541C20.4574 41.5557 20.8815 41.1721 21.0532 40.6901C21.1339 40.4639 21.1541 40.2278 21.1036 39.9819C21.0027 39.4409 20.6088 39.0278 20.114 38.8606C19.8818 38.7819 19.6394 38.7622 19.3769 38.8016L11.4297 40.1688C11.2479 40.1983 11.157 39.9721 11.2984 39.8737L12.7828 38.8606C13.5604 38.3294 13.732 37.2278 13.1464 36.4114C12.5607 35.595 11.4398 35.3589 10.6622 35.89L7.1178 38.2999C4.61348 39.5983 3.11896 42.3721 3.63396 45.2443L3.87632 46.5722C4.4923 49.946 7.68329 52.2772 11.1368 51.9723C11.2277 51.9723 11.3085 51.9624 11.3994 51.9526L20.1443 50.4476C20.9522 50.3099 21.5379 49.5427 21.4066 48.7656C21.3258 48.3033 21.0229 47.9394 20.629 47.7328C20.3463 47.5853 20.0231 47.5263 19.6899 47.5853L21.245 47.3C21.6691 47.2312 22.0125 46.9853 22.2346 46.6607C22.4265 46.3656 22.5174 46.0017 22.4568 45.6279C22.3861 45.2541 22.174 44.9394 21.8812 44.723C21.5682 44.4869 21.1541 44.3787 20.7401 44.4475L22.7193 44.1033C23.5272 43.9656 24.0725 43.2082 23.921 42.4213C23.8907 42.1951 23.7897 41.9885 23.6484 41.8114Z" fill="url(#paint6_radial_54_981)"/>
</mask>
<g mask="url(#mask3_54_981)">
<g style="mix-blend-mode:color-burn" filter="url(#filter4_f_54_981)">
<path d="M6.48588 38.7602C7.3947 38.1799 8.29343 37.5995 9.19216 37.0094L10.5352 36.1143C10.6463 36.0356 10.7473 35.9765 10.8684 35.9175C10.9896 35.8684 11.1108 35.829 11.232 35.8093C11.4844 35.77 11.747 35.7897 11.9893 35.8585C12.4841 35.9962 12.8982 36.3602 13.1203 36.8126C13.3425 37.2651 13.3627 37.8061 13.1506 38.2684C13.0496 38.4946 12.8881 38.7012 12.676 38.8487C12.4639 39.0061 12.2519 39.1733 12.0398 39.3405C11.6157 39.675 11.2017 40.0094 10.7877 40.3537C11.2421 40.0586 11.6864 39.7635 12.1307 39.4487C12.3529 39.2914 12.5649 39.1438 12.7871 38.9864C13.0193 38.8192 13.2011 38.593 13.3223 38.3471C13.5646 37.8356 13.5444 37.2356 13.292 36.7339C13.0496 36.2323 12.5851 35.8388 12.0297 35.6815C11.7571 35.6028 11.4642 35.5831 11.1815 35.6323C11.0401 35.6618 10.8987 35.7011 10.7776 35.7602C10.6463 35.8192 10.5251 35.8979 10.414 35.9765L9.09118 36.8913C8.23285 37.511 7.35431 38.1307 6.48588 38.7602Z" fill="#A43C00"/>
<path d="M10.4936 40.4128C11.4226 40.2751 12.3517 40.1275 13.2706 39.98L16.0476 39.5275C16.9766 39.38 17.8955 39.2226 18.8245 39.0652L19.1679 39.0062C19.289 38.9865 19.39 38.9669 19.5011 38.9669C19.7233 38.9669 19.9454 39.0062 20.1373 39.1046C20.3291 39.2029 20.5109 39.3308 20.6422 39.5078C20.7735 39.6751 20.8643 39.8816 20.9047 40.0882C20.9451 40.2947 20.9249 40.5111 20.8643 40.7177C20.8038 40.9243 20.6826 41.1112 20.5311 41.2685C20.3796 41.4259 20.1878 41.5439 19.9858 41.6128C19.8848 41.6521 19.7738 41.662 19.6526 41.6915L19.3092 41.7505C18.3903 41.9177 17.4613 42.0653 16.5424 42.2423L13.7755 42.744C12.8566 42.921 11.9275 43.0882 11.0086 43.2653C11.9376 43.1276 12.8667 42.98 13.7856 42.8325L16.5626 42.38C17.4916 42.2325 18.4105 42.0751 19.3395 41.9177L19.6829 41.8587C19.7939 41.839 19.9252 41.8194 20.0363 41.78C20.2686 41.7013 20.4907 41.5735 20.6624 41.3964C20.8341 41.2193 20.9754 41.0128 21.0461 40.7767C21.1168 40.5407 21.137 40.2947 21.0966 40.0488C21.0562 39.8128 20.9451 39.5767 20.7937 39.3898C20.6422 39.1931 20.4402 39.0455 20.2181 38.9373C19.9959 38.8291 19.7435 38.78 19.491 38.7898C19.3698 38.7898 19.2386 38.8193 19.1275 38.8291L18.7841 38.8882C17.8652 39.0554 16.9362 39.2029 16.0173 39.38L13.2504 39.8816C12.3416 40.0685 11.4125 40.2357 10.4936 40.4128Z" fill="#A43C00"/>
<path d="M13.8363 45.724C14.2604 45.665 14.6845 45.5961 15.0986 45.5371C15.5227 45.4683 15.9468 45.4092 16.3608 45.3404L18.8853 44.9371L20.1476 44.7207L20.4606 44.6715L20.6222 44.642C20.6727 44.6322 20.7232 44.6322 20.7737 44.6223C20.9756 44.6027 21.1776 44.6322 21.3594 44.701C21.733 44.8387 22.046 45.1338 22.1773 45.4978C22.248 45.6846 22.2783 45.8715 22.2581 46.0683C22.248 46.265 22.1874 46.4519 22.0864 46.6191C21.8946 46.9634 21.5512 47.2191 21.1574 47.2978L19.8951 47.5142L18.6329 47.7306L17.3706 47.9568L14.8562 48.4191C14.0181 48.5765 13.1799 48.7339 12.3418 48.8913C13.19 48.7634 14.0282 48.6355 14.8764 48.4978L17.4009 48.0945L18.6632 47.888L19.9456 47.7109L21.2079 47.4945C21.6522 47.406 22.0561 47.1207 22.2783 46.7371C22.5004 46.3535 22.5408 45.8715 22.3793 45.4486C22.2177 45.0355 21.8643 44.6912 21.4401 44.5436C21.2281 44.465 20.9958 44.4354 20.7737 44.4551C20.7131 44.4551 20.6626 44.465 20.602 44.4748L20.4404 44.5043L20.1274 44.5633L18.8651 44.7896L16.3507 45.2519C15.9266 45.3305 15.5126 45.4092 15.0885 45.4879C14.6744 45.5568 14.2503 45.6453 13.8363 45.724Z" fill="#A43C00"/>
<path d="M13.3208 42.8722C14.2498 42.7345 15.1788 42.5869 16.0977 42.4394L18.8747 41.9869C19.8037 41.8394 20.7227 41.682 21.6517 41.5246L21.995 41.4656C22.1162 41.4459 22.2172 41.4263 22.3283 41.4263C22.5504 41.4263 22.7726 41.4656 22.9644 41.564C23.1563 41.6623 23.3381 41.7902 23.4693 41.9672C23.6006 42.1345 23.6915 42.341 23.7319 42.5476C23.7723 42.764 23.7521 42.9804 23.6915 43.1869C23.6309 43.3935 23.5097 43.5804 23.3583 43.7378C23.2068 43.8951 23.0149 44.0132 22.813 44.082C22.712 44.1214 22.6009 44.1312 22.4797 44.1607L22.1364 44.2197C21.2175 44.387 20.2884 44.5345 19.3695 44.7116L16.6026 45.2132C15.6837 45.3903 14.7547 45.5575 13.8358 45.7345C14.7648 45.5968 15.6938 45.4493 16.6127 45.3017L19.3897 44.8493C20.3187 44.7017 21.2377 44.5443 22.1667 44.387L22.51 44.3279C22.6211 44.3083 22.7524 44.2886 22.8635 44.2493C23.0957 44.1706 23.3179 44.0427 23.4895 43.8656C23.6612 43.6886 23.8026 43.482 23.8733 43.246C23.9439 43.0099 23.9641 42.764 23.9237 42.5181C23.8834 42.282 23.7723 42.0459 23.6208 41.8591C23.4693 41.6623 23.2674 41.5148 23.0452 41.4066C22.8231 41.2984 22.5706 41.2492 22.3182 41.259C22.197 41.259 22.0657 41.2886 21.9546 41.2984L21.6113 41.3574C20.6924 41.5246 19.7633 41.6722 18.8444 41.8492L16.0775 42.3509C15.1586 42.5279 14.2397 42.6951 13.3208 42.8722Z" fill="#A43C00"/>
</g>
</g>
</g>
</g>
<path d="M25.0377 41.8124C25.0781 41.7534 25.1286 41.7042 25.1791 41.655C25.4315 41.419 25.7647 41.2616 26.1182 41.2419C26.2394 41.2321 26.3605 41.2419 26.4817 41.2616L28.7841 41.655C28.2287 41.5567 27.8046 41.1731 27.6329 40.6911C27.5521 40.4649 27.5319 40.2288 27.5824 39.9829C27.6834 39.4419 28.0772 39.0288 28.572 38.8616C28.8043 38.7829 29.0466 38.7632 29.3092 38.8025L37.2564 40.1698C37.4381 40.1993 37.529 39.973 37.3876 39.8747L35.9032 38.8616C35.1257 38.3304 34.954 37.2287 35.5397 36.4123C36.1254 35.5959 37.2463 35.3599 38.0238 35.891L41.5682 38.3009C44.0726 39.5993 45.5671 42.3731 45.0521 45.2453L44.8097 46.5731C44.1937 49.947 41.0027 52.2782 37.5492 51.9732C37.4583 51.9732 37.3775 51.9634 37.2866 51.9536L28.5417 50.4486C27.7339 50.3109 27.1482 49.5437 27.2795 48.7666C27.3602 48.3043 27.6632 47.9404 28.057 47.7338C28.3398 47.5863 28.6629 47.5273 28.9961 47.5863L27.441 47.301C27.0169 47.2322 26.6736 46.9863 26.4514 46.6617C26.2595 46.3666 26.1687 46.0026 26.2293 45.6289C26.2999 45.2551 26.512 44.9403 26.8048 44.7239C27.1179 44.4879 27.5319 44.3797 27.9459 44.4485L25.9667 44.1043C25.1589 43.9665 24.6136 43.2092 24.765 42.4223C24.7953 42.196 24.8963 41.9895 25.0377 41.8124Z" fill="url(#paint7_radial_54_981)"/>
<g style="mix-blend-mode:color-burn">
<mask id="mask4_54_981" style="mask-type:alpha" maskUnits="userSpaceOnUse" x="24" y="35" width="22" height="17">
<path d="M25.0377 41.8124C25.0781 41.7534 25.1286 41.7042 25.1791 41.655C25.4315 41.419 25.7647 41.2616 26.1182 41.2419C26.2394 41.2321 26.3605 41.2419 26.4817 41.2616L28.7841 41.655C28.2287 41.5567 27.8046 41.1731 27.6329 40.6911C27.5521 40.4649 27.5319 40.2288 27.5824 39.9829C27.6834 39.4419 28.0772 39.0288 28.572 38.8616C28.8043 38.7829 29.0466 38.7632 29.3092 38.8025L37.2564 40.1698C37.4381 40.1993 37.529 39.973 37.3876 39.8747L35.9032 38.8616C35.1257 38.3304 34.954 37.2287 35.5397 36.4123C36.1254 35.5959 37.2463 35.3599 38.0238 35.891L41.5682 38.3009C44.0726 39.5993 45.5671 42.3731 45.0521 45.2453L44.8097 46.5731C44.1937 49.947 41.0027 52.2782 37.5492 51.9732C37.4583 51.9732 37.3775 51.9634 37.2866 51.9536L28.5417 50.4486C27.7339 50.3109 27.1482 49.5437 27.2795 48.7666C27.3602 48.3043 27.6632 47.9404 28.057 47.7338C28.3398 47.5863 28.6629 47.5273 28.9961 47.5863L27.441 47.301C27.0169 47.2322 26.6736 46.9863 26.4514 46.6617C26.2595 46.3666 26.1687 46.0026 26.2293 45.6289C26.2999 45.2551 26.512 44.9403 26.8048 44.7239C27.1179 44.4879 27.5319 44.3797 27.9459 44.4485L25.9667 44.1043C25.1589 43.9665 24.6136 43.2092 24.765 42.4223C24.7953 42.196 24.8963 41.9895 25.0377 41.8124Z" fill="url(#paint8_radial_54_981)"/>
</mask>
<g mask="url(#mask4_54_981)">
<g style="mix-blend-mode:color-burn" filter="url(#filter5_f_54_981)">
<path d="M42.1997 38.7612C41.2908 38.1808 40.3921 37.6005 39.4934 37.0103L38.1503 36.1152C38.0393 36.0365 37.9383 35.9775 37.8171 35.9185C37.6959 35.8693 37.5747 35.83 37.4536 35.8103C37.2011 35.771 36.9386 35.7906 36.6962 35.8595C36.2014 35.9972 35.7874 36.3611 35.5652 36.8136C35.3431 37.2661 35.3229 37.8071 35.5349 38.2694C35.6359 38.4956 35.7975 38.7022 36.0095 38.8497C36.2216 39.0071 36.4337 39.1743 36.6457 39.3415C37.0698 39.6759 37.4839 40.0104 37.8979 40.3546C37.4435 40.0596 36.9992 39.7645 36.5548 39.4497C36.3327 39.2923 36.1206 39.1448 35.8985 38.9874C35.6662 38.8202 35.4844 38.594 35.3633 38.3481C35.1209 37.8366 35.1411 37.2366 35.3936 36.7349C35.6359 36.2333 36.1004 35.8398 36.6558 35.6824C36.9285 35.6037 37.2213 35.5841 37.5041 35.6333C37.6454 35.6628 37.7868 35.7021 37.908 35.7611C38.0393 35.8201 38.1604 35.8988 38.2715 35.9775L39.5944 36.8923C40.4527 37.512 41.3312 38.1317 42.1997 38.7612Z" fill="#633617"/>
<path d="M38.1929 40.4142C37.2639 40.2765 36.3349 40.129 35.4159 39.9815L32.639 39.529C31.7099 39.3814 30.791 39.2241 29.862 39.0667L29.5187 39.0077C29.3975 38.988 29.2965 38.9683 29.1854 38.9683C28.9633 38.9683 28.7411 39.0077 28.5492 39.106C28.3574 39.2044 28.1756 39.3323 28.0443 39.5093C27.9131 39.6765 27.8222 39.8831 27.7818 40.0896C27.7414 40.2962 27.7616 40.5126 27.8222 40.7192C27.8828 40.9257 28.0039 41.1126 28.1554 41.27C28.3069 41.4274 28.4987 41.5454 28.7007 41.6143C28.8017 41.6536 28.9128 41.6634 29.0339 41.693L29.3773 41.752C30.2962 41.9192 31.2252 42.0667 32.1442 42.2438L34.911 42.7454C35.83 42.9225 36.759 43.0897 37.6779 43.2667C36.7489 43.129 35.8199 42.9815 34.9009 42.834L32.124 42.3815C31.1949 42.2339 30.276 42.0766 29.347 41.9192L29.0037 41.8602C28.8926 41.8405 28.7613 41.8208 28.6502 41.7815C28.418 41.7028 28.1958 41.5749 28.0241 41.3979C27.8525 41.2208 27.7111 41.0143 27.6404 40.7782C27.5697 40.5421 27.5495 40.2962 27.5899 40.0503C27.6303 39.8142 27.7414 39.5782 27.8929 39.3913C28.0443 39.1946 28.2463 39.047 28.4685 38.9388C28.6906 38.8306 28.9431 38.7814 29.1955 38.7913C29.3167 38.7913 29.448 38.8208 29.559 38.8306L29.9024 38.8896C30.8213 39.0568 31.7503 39.2044 32.6693 39.3814L35.4361 39.8831C36.345 40.07 37.274 40.2372 38.1929 40.4142Z" fill="#42210B"/>
<path d="M34.8488 45.7255C34.4246 45.6664 34.0005 45.5976 33.5865 45.5386C33.1624 45.4697 32.7383 45.4107 32.3242 45.3418L29.7997 44.9386L28.5375 44.7222L28.2244 44.673L28.0629 44.6435C28.0124 44.6336 27.9619 44.6336 27.9114 44.6238C27.7094 44.6041 27.5075 44.6336 27.3257 44.7025C26.9521 44.8402 26.639 45.1353 26.5078 45.4992C26.4371 45.6861 26.4068 45.873 26.427 46.0697C26.4371 46.2664 26.4977 46.4533 26.5986 46.6206C26.7905 46.9648 27.1338 47.2206 27.5277 47.2993L28.7899 47.5156L30.0522 47.732L31.3144 47.9583L33.8289 48.4206C34.667 48.578 35.5051 48.7353 36.3433 48.8927C35.495 48.7648 34.6569 48.637 33.8087 48.4993L31.2841 48.096L30.0219 47.8894L28.7394 47.7124L27.4772 47.496C27.0329 47.4075 26.6289 47.1222 26.4068 46.7386C26.1846 46.355 26.1442 45.873 26.3058 45.45C26.4674 45.0369 26.8208 44.6927 27.2449 44.5451C27.457 44.4664 27.6892 44.4369 27.9114 44.4566C27.972 44.4566 28.0225 44.4664 28.0831 44.4763L28.2446 44.5058L28.5577 44.5648L29.8199 44.791L32.3343 45.2533C32.7585 45.332 33.1725 45.4107 33.5966 45.4894C34.0106 45.5582 34.4347 45.6468 34.8488 45.7255Z" fill="#42210B"/>
<path d="M33.9407 48.5186C33.1733 48.4202 32.4159 48.312 31.6485 48.1841L30.5074 48.0071L29.3663 47.8202L29.0836 47.771C28.9927 47.7513 28.9018 47.7513 28.8109 47.7513C28.6292 47.7513 28.4474 47.7907 28.2858 47.8694C27.9526 48.0071 27.6799 48.2825 27.5487 48.6071C27.4174 48.9317 27.4174 49.3055 27.5588 49.6301C27.7001 49.9547 27.9728 50.2202 28.306 50.3579C28.3868 50.3874 28.4777 50.417 28.5686 50.4366C28.6594 50.4563 28.7604 50.4661 28.8513 50.4858L29.4168 50.5842L30.5579 50.7809C31.3152 50.9088 32.0726 51.0563 32.83 51.194C34.3447 51.4694 35.8594 51.7448 37.3741 52.0399C35.8493 51.8137 34.3245 51.5678 32.7997 51.3219C32.0423 51.194 31.2748 51.076 30.5175 50.9481L29.3764 50.7612L28.8109 50.6629C28.7099 50.6432 28.6191 50.6334 28.5282 50.6137C28.4272 50.594 28.3262 50.5645 28.2353 50.5252C27.8516 50.3678 27.5487 50.0727 27.3871 49.6989C27.2255 49.335 27.2154 48.9022 27.377 48.5284C27.5285 48.1546 27.8415 47.8497 28.2151 47.6923C28.407 47.6136 28.609 47.5645 28.8109 47.5645C28.9119 47.5645 29.0129 47.5743 29.1139 47.5841L29.3966 47.6333L30.5377 47.8399L31.6687 48.0563C32.426 48.2038 33.1834 48.3514 33.9407 48.5186Z" fill="#42210B"/>
<path d="M35.3643 42.8727C34.4353 42.735 33.5062 42.5874 32.5873 42.4399L29.8103 41.9874C28.8813 41.8399 27.9624 41.6825 27.0334 41.5251L26.69 41.4661C26.5689 41.4464 26.4679 41.4267 26.3568 41.4267C26.1346 41.4267 25.9125 41.4661 25.7206 41.5645C25.5288 41.6628 25.347 41.7907 25.2157 41.9677C25.0844 42.135 24.9936 42.3415 24.9532 42.5481C24.9128 42.7645 24.933 42.9809 24.9936 43.1874C25.0542 43.394 25.1753 43.5809 25.3268 43.7383C25.4783 43.8956 25.6701 44.0137 25.8721 44.0825C25.9731 44.1219 26.0842 44.1317 26.2053 44.1612L26.5487 44.2202C27.4676 44.3874 28.3966 44.535 29.3155 44.712L32.0824 45.2137C33.0013 45.3907 33.9304 45.558 34.8493 45.735C33.9203 45.5973 32.9912 45.4498 32.0723 45.3022L29.2953 44.8497C28.3663 44.7022 27.4474 44.5448 26.5184 44.3874L26.175 44.3284C26.064 44.3088 25.9327 44.2891 25.8216 44.2497C25.5894 44.1711 25.3672 44.0432 25.1955 43.8661C25.0239 43.6891 24.8825 43.4825 24.8118 43.2464C24.7411 43.0104 24.7209 42.7645 24.7613 42.5186C24.8017 42.2825 24.9128 42.0464 25.0643 41.8595C25.2157 41.6628 25.4177 41.5153 25.6398 41.4071C25.862 41.2989 26.1145 41.2497 26.3669 41.2595C26.4881 41.2595 26.6194 41.289 26.7304 41.2989L27.0738 41.3579C27.9927 41.5251 28.9217 41.6727 29.8406 41.8497L32.6075 42.3514C33.5264 42.5284 34.4454 42.6956 35.3643 42.8727Z" fill="#42210B"/>
</g>
</g>
</g>
<path d="M23.6479 41.8114C23.6075 41.7524 23.557 41.7032 23.5065 41.6541C23.254 41.418 22.9208 41.2606 22.5674 41.2409C22.4462 41.2311 22.325 41.2409 22.2038 41.2606L19.9015 41.6541C20.4569 41.5557 20.881 41.1721 21.0527 40.6901C21.1334 40.4639 21.1536 40.2278 21.1032 39.9819C21.0022 39.4409 20.6083 39.0278 20.1135 38.8606C19.8813 38.7819 19.6389 38.7622 19.3764 38.8016L11.4292 40.1688C11.2474 40.1983 11.1565 39.9721 11.2979 39.8737L12.7823 38.8606C13.5599 38.3294 13.7316 37.2278 13.1459 36.4114C12.5602 35.595 11.4393 35.3589 10.6617 35.89L7.11731 38.2999C4.61299 39.5983 3.11847 42.3721 3.63348 45.2443L3.87583 46.5722C4.49181 49.946 7.68281 52.2772 11.1363 51.9723C11.2272 51.9723 11.308 51.9624 11.3989 51.9526L20.1438 50.4476C20.9517 50.3099 21.5374 49.5427 21.4061 48.7656C21.3253 48.3033 21.0224 47.9394 20.6285 47.7328C20.3458 47.5853 20.0227 47.5263 19.6894 47.5853L21.2445 47.3C21.6686 47.2312 22.012 46.9853 22.2341 46.6607C22.426 46.3656 22.5169 46.0017 22.4563 45.6279C22.3856 45.2541 22.1735 44.9394 21.8807 44.723C21.5677 44.4869 21.1536 44.3787 20.7396 44.4475L22.7188 44.1033C23.5267 43.9656 24.072 43.2082 23.9205 42.4213C23.8902 42.1951 23.7892 41.9885 23.6479 41.8114Z" fill="url(#paint9_radial_54_981)"/>
<g style="mix-blend-mode:color-burn">
<mask id="mask5_54_981" style="mask-type:alpha" maskUnits="userSpaceOnUse" x="3" y="35" width="21" height="17">
<path d="M23.6484 41.8114C23.608 41.7524 23.5575 41.7032 23.507 41.6541C23.2545 41.418 22.9213 41.2606 22.5679 41.2409C22.4467 41.2311 22.3255 41.2409 22.2043 41.2606L19.902 41.6541C20.4574 41.5557 20.8815 41.1721 21.0532 40.6901C21.1339 40.4639 21.1541 40.2278 21.1036 39.9819C21.0027 39.4409 20.6088 39.0278 20.114 38.8606C19.8818 38.7819 19.6394 38.7622 19.3769 38.8016L11.4297 40.1688C11.2479 40.1983 11.157 39.9721 11.2984 39.8737L12.7828 38.8606C13.5604 38.3294 13.732 37.2278 13.1464 36.4114C12.5607 35.595 11.4398 35.3589 10.6622 35.89L7.1178 38.2999C4.61348 39.5983 3.11896 42.3721 3.63396 45.2443L3.87632 46.5722C4.4923 49.946 7.68329 52.2772 11.1368 51.9723C11.2277 51.9723 11.3085 51.9624 11.3994 51.9526L20.1443 50.4476C20.9522 50.3099 21.5379 49.5427 21.4066 48.7656C21.3258 48.3033 21.0229 47.9394 20.629 47.7328C20.3463 47.5853 20.0231 47.5263 19.6899 47.5853L21.245 47.3C21.6691 47.2312 22.0125 46.9853 22.2346 46.6607C22.4265 46.3656 22.5174 46.0017 22.4568 45.6279C22.3861 45.2541 22.174 44.9394 21.8812 44.723C21.5682 44.4869 21.1541 44.3787 20.7401 44.4475L22.7193 44.1033C23.5272 43.9656 24.0725 43.2082 23.921 42.4213C23.8907 42.1951 23.7897 41.9885 23.6484 41.8114Z" fill="url(#paint10_radial_54_981)"/>
</mask>
<g mask="url(#mask5_54_981)">
<g style="mix-blend-mode:color-burn" filter="url(#filter6_f_54_981)">
<path d="M6.48588 38.7602C7.3947 38.1799 8.29343 37.5995 9.19216 37.0094L10.5352 36.1143C10.6463 36.0356 10.7473 35.9765 10.8684 35.9175C10.9896 35.8684 11.1108 35.829 11.232 35.8093C11.4844 35.77 11.747 35.7897 11.9893 35.8585C12.4841 35.9962 12.8982 36.3602 13.1203 36.8126C13.3425 37.2651 13.3627 37.8061 13.1506 38.2684C13.0496 38.4946 12.8881 38.7012 12.676 38.8487C12.4639 39.0061 12.2519 39.1733 12.0398 39.3405C11.6157 39.675 11.2017 40.0094 10.7877 40.3537C11.2421 40.0586 11.6864 39.7635 12.1307 39.4487C12.3529 39.2914 12.5649 39.1438 12.7871 38.9864C13.0193 38.8192 13.2011 38.593 13.3223 38.3471C13.5646 37.8356 13.5444 37.2356 13.292 36.7339C13.0496 36.2323 12.5851 35.8388 12.0297 35.6815C11.7571 35.6028 11.4642 35.5831 11.1815 35.6323C11.0401 35.6618 10.8987 35.7011 10.7776 35.7602C10.6463 35.8192 10.5251 35.8979 10.414 35.9765L9.09118 36.8913C8.23285 37.511 7.35431 38.1307 6.48588 38.7602Z" fill="#633617"/>
<path d="M10.4936 40.4128C11.4226 40.2751 12.3517 40.1275 13.2706 39.98L16.0476 39.5275C16.9766 39.38 17.8955 39.2226 18.8245 39.0652L19.1679 39.0062C19.289 38.9865 19.39 38.9669 19.5011 38.9669C19.7233 38.9669 19.9454 39.0062 20.1373 39.1046C20.3291 39.2029 20.5109 39.3308 20.6422 39.5078C20.7735 39.6751 20.8643 39.8816 20.9047 40.0882C20.9451 40.2947 20.9249 40.5111 20.8643 40.7177C20.8038 40.9243 20.6826 41.1112 20.5311 41.2685C20.3796 41.4259 20.1878 41.5439 19.9858 41.6128C19.8848 41.6521 19.7738 41.662 19.6526 41.6915L19.3092 41.7505C18.3903 41.9177 17.4613 42.0653 16.5424 42.2423L13.7755 42.744C12.8566 42.921 11.9275 43.0882 11.0086 43.2653C11.9376 43.1276 12.8667 42.98 13.7856 42.8325L16.5626 42.38C17.4916 42.2325 18.4105 42.0751 19.3395 41.9177L19.6829 41.8587C19.7939 41.839 19.9252 41.8194 20.0363 41.78C20.2686 41.7013 20.4907 41.5735 20.6624 41.3964C20.8341 41.2193 20.9754 41.0128 21.0461 40.7767C21.1168 40.5407 21.137 40.2947 21.0966 40.0488C21.0562 39.8128 20.9451 39.5767 20.7937 39.3898C20.6422 39.1931 20.4402 39.0455 20.2181 38.9373C19.9959 38.8291 19.7435 38.78 19.491 38.7898C19.3698 38.7898 19.2386 38.8193 19.1275 38.8291L18.7841 38.8882C17.8652 39.0554 16.9362 39.2029 16.0173 39.38L13.2504 39.8816C12.3416 40.0685 11.4125 40.2357 10.4936 40.4128Z" fill="#42210B"/>
<path d="M13.8363 45.724C14.2604 45.665 14.6845 45.5961 15.0986 45.5371C15.5227 45.4683 15.9468 45.4092 16.3608 45.3404L18.8853 44.9371L20.1476 44.7207L20.4606 44.6715L20.6222 44.642C20.6727 44.6322 20.7232 44.6322 20.7737 44.6223C20.9756 44.6027 21.1776 44.6322 21.3594 44.701C21.733 44.8387 22.046 45.1338 22.1773 45.4978C22.248 45.6846 22.2783 45.8715 22.2581 46.0683C22.248 46.265 22.1874 46.4519 22.0864 46.6191C21.8946 46.9634 21.5512 47.2191 21.1574 47.2978L19.8951 47.5142L18.6329 47.7306L17.3706 47.9568L14.8562 48.4191C14.0181 48.5765 13.1799 48.7339 12.3418 48.8913C13.19 48.7634 14.0282 48.6355 14.8764 48.4978L17.4009 48.0945L18.6632 47.888L19.9456 47.7109L21.2079 47.4945C21.6522 47.406 22.0561 47.1207 22.2783 46.7371C22.5004 46.3535 22.5408 45.8715 22.3793 45.4486C22.2177 45.0355 21.8643 44.6912 21.4401 44.5436C21.2281 44.465 20.9958 44.4354 20.7737 44.4551C20.7131 44.4551 20.6626 44.465 20.602 44.4748L20.4404 44.5043L20.1274 44.5633L18.8651 44.7896L16.3507 45.2519C15.9266 45.3305 15.5126 45.4092 15.0885 45.4879C14.6744 45.5568 14.2503 45.6453 13.8363 45.724Z" fill="#42210B"/>
<path d="M14.7443 48.5181C15.5118 48.4197 16.2691 48.3115 17.0366 48.1836L18.1777 48.0066L19.3187 47.8197L19.6015 47.7705C19.6924 47.7509 19.7833 47.7509 19.8741 47.7509C20.0559 47.7509 20.2377 47.7902 20.3992 47.8689C20.7325 48.0066 21.0051 48.282 21.1364 48.6066C21.2677 48.9312 21.2677 49.305 21.1263 49.6296C20.9849 49.9542 20.7123 50.2197 20.379 50.3575C20.2983 50.387 20.2074 50.4165 20.1165 50.4361C20.0256 50.4558 19.9246 50.4656 19.8338 50.4853L19.2683 50.5837L18.1272 50.7804C17.3698 50.9083 16.6125 51.0558 15.8551 51.1935C14.3404 51.4689 12.8257 51.7444 11.311 52.0394C12.8358 51.8132 14.3606 51.5673 15.8854 51.3214C16.6428 51.1935 17.4102 51.0755 18.1676 50.9476L19.3087 50.7607L19.8741 50.6624C19.9751 50.6427 20.066 50.6329 20.1569 50.6132C20.2579 50.5935 20.3589 50.564 20.4497 50.5247C20.8335 50.3673 21.1364 50.0722 21.298 49.6984C21.4595 49.3345 21.4696 48.9017 21.3081 48.5279C21.1566 48.1541 20.8436 47.8492 20.4699 47.6918C20.2781 47.6131 20.0761 47.564 19.8741 47.564C19.7732 47.564 19.6722 47.5738 19.5712 47.5836L19.2885 47.6328L18.1474 47.8394L17.0164 48.0558C16.259 48.2033 15.5017 48.3509 14.7443 48.5181Z" fill="#42210B"/>
<path d="M13.3208 42.8722C14.2498 42.7345 15.1788 42.5869 16.0977 42.4394L18.8747 41.9869C19.8037 41.8394 20.7227 41.682 21.6517 41.5246L21.995 41.4656C22.1162 41.4459 22.2172 41.4263 22.3283 41.4263C22.5504 41.4263 22.7726 41.4656 22.9644 41.564C23.1563 41.6623 23.3381 41.7902 23.4693 41.9672C23.6006 42.1345 23.6915 42.341 23.7319 42.5476C23.7723 42.764 23.7521 42.9804 23.6915 43.1869C23.6309 43.3935 23.5097 43.5804 23.3583 43.7378C23.2068 43.8951 23.0149 44.0132 22.813 44.082C22.712 44.1214 22.6009 44.1312 22.4797 44.1607L22.1364 44.2197C21.2175 44.387 20.2884 44.5345 19.3695 44.7116L16.6026 45.2132C15.6837 45.3903 14.7547 45.5575 13.8358 45.7345C14.7648 45.5968 15.6938 45.4493 16.6127 45.3017L19.3897 44.8493C20.3187 44.7017 21.2377 44.5443 22.1667 44.387L22.51 44.3279C22.6211 44.3083 22.7524 44.2886 22.8635 44.2493C23.0957 44.1706 23.3179 44.0427 23.4895 43.8656C23.6612 43.6886 23.8026 43.482 23.8733 43.246C23.9439 43.0099 23.9641 42.764 23.9237 42.5181C23.8834 42.282 23.7723 42.0459 23.6208 41.8591C23.4693 41.6623 23.2674 41.5148 23.0452 41.4066C22.8231 41.2984 22.5706 41.2492 22.3182 41.259C22.197 41.259 22.0657 41.2886 21.9546 41.2984L21.6113 41.3574C20.6924 41.5246 19.7633 41.6722 18.8444 41.8492L16.0775 42.3509C15.1586 42.5279 14.2397 42.6951 13.3208 42.8722Z" fill="#42210B"/>
</g>
</g>
</g>
<path d="M35.2378 27.7119C30.6027 35.6212 18.1084 35.6261 13.4855 27.704C13.2906 27.3706 13.6511 26.989 13.9399 27.2201C16.8744 29.5747 20.5577 30.8629 24.3597 30.8644C28.1616 30.8658 31.8459 29.5804 34.7823 27.228C35.0711 26.9958 35.4327 27.3785 35.2378 27.7119Z" fill="url(#paint11_radial_54_981)"/>
<path fill-rule="evenodd" clip-rule="evenodd" d="M13.6246 27.3334C13.5568 27.4054 13.5273 27.5265 13.5955 27.6431L13.5955 27.6432C18.1699 35.4822 30.5417 35.4777 35.1284 27.6509C35.1964 27.5345 35.1669 27.4132 35.0988 27.3409C35.0648 27.3049 35.0251 27.2851 34.9879 27.2807C34.9531 27.2766 34.9104 27.2846 34.863 27.3227L34.8628 27.3228C31.9038 29.6934 28.1911 30.9887 24.3599 30.9872C20.5287 30.9858 16.8171 29.6877 13.86 27.315C13.8126 27.2771 13.77 27.2691 13.7353 27.2733C13.6981 27.2777 13.6584 27.2975 13.6246 27.3334ZM13.7047 27.0292C13.8126 27.0163 13.9233 27.0474 14.0203 27.125L14.0205 27.1251C16.9324 29.4616 20.5873 30.7399 24.36 30.7413C28.1326 30.7428 31.7885 29.4673 34.7023 27.1331C34.7993 27.0551 34.9101 27.0239 35.0182 27.0366C35.1239 27.0491 35.2165 27.1023 35.2847 27.1746C35.4208 27.319 35.4746 27.5557 35.3478 27.7727L35.3477 27.7728C30.6643 35.7646 18.0474 35.7699 13.3761 27.7647L13.4858 27.704L13.3761 27.7648C13.3761 27.7648 13.3761 27.7647 13.3761 27.7647C13.2494 27.5479 13.3027 27.3115 13.4386 27.1672C13.5067 27.0948 13.5991 27.0417 13.7047 27.0292Z" fill="url(#paint12_linear_54_981)"/>
<path d="M20.8598 19.502C20.8622 20.2009 20.7232 20.8934 20.4509 21.54C20.4123 21.6206 20.3503 21.6883 20.2726 21.7348C20.1949 21.7814 20.1048 21.8046 20.0136 21.8017C19.911 21.8064 19.8097 21.7769 19.7266 21.718C19.6435 21.6592 19.5833 21.5746 19.5562 21.4781C19.2451 20.0164 18.0354 18.9275 16.5904 18.9275C15.1453 18.9275 13.9336 20.0164 13.6225 21.4781C13.5955 21.5747 13.5355 21.6594 13.4523 21.7183C13.3691 21.7771 13.2678 21.8065 13.1651 21.8017C13.0739 21.8046 12.9839 21.7814 12.9061 21.7348C12.8284 21.6883 12.7664 21.6206 12.7278 21.54C12.4556 20.8937 12.3166 20.2015 12.3189 19.503C12.3189 16.8708 14.2304 14.7373 16.5904 14.7373C18.9503 14.7373 20.8598 16.8698 20.8598 19.502Z" fill="url(#paint13_radial_54_981)"/>
<path fill-rule="evenodd" clip-rule="evenodd" d="M16.5903 14.8359C14.2986 14.8359 12.4198 16.9123 12.4198 19.5032L12.4198 19.5035C12.4176 20.1883 12.5536 20.8669 12.8202 21.5007C12.8505 21.5629 12.8986 21.6152 12.9589 21.6512C13.0198 21.6877 13.0903 21.7059 13.1617 21.7036L13.165 21.8019L13.1699 21.7036C13.2496 21.7074 13.3283 21.6846 13.3928 21.6389C13.4566 21.5938 13.5029 21.529 13.5242 21.4551C13.8444 19.9573 15.0906 18.8294 16.5903 18.8294C18.09 18.8294 19.3341 19.9573 19.6543 21.4551C19.6757 21.5289 19.7221 21.5936 19.7858 21.6387C19.8504 21.6844 19.9291 21.7073 20.0088 21.7036L20.0128 21.7035L20.0168 21.7036C20.0882 21.7059 20.1588 21.6877 20.2196 21.6512C20.2799 21.6152 20.328 21.5629 20.3583 21.5007C20.625 20.8666 20.7611 20.1877 20.7588 19.5025L20.7588 19.5022C20.7588 16.9113 18.8819 14.8359 16.5903 14.8359ZM13.1642 21.9003C13.0547 21.9031 12.9466 21.8748 12.8532 21.8189C12.7586 21.7623 12.6831 21.6798 12.6362 21.5818L12.6352 21.5797L12.6343 21.5776C12.3571 20.9194 12.2155 20.2145 12.2178 19.503C12.2179 16.8296 14.1622 14.6392 16.5903 14.6392C19.0184 14.6392 20.9607 16.8286 20.9607 19.5021C20.9607 19.5021 20.9607 19.5022 20.9607 19.5022H20.8597L20.9607 19.5019C20.9607 19.5019 20.9607 19.502 20.9607 19.5021C20.9631 20.2138 20.8216 20.9191 20.5442 21.5776L20.5433 21.5797L20.5423 21.5818C20.4954 21.6798 20.42 21.7623 20.3254 21.8189C20.2319 21.8748 20.1238 21.9031 20.0142 21.9003C20.0156 21.9003 20.0169 21.9002 20.0182 21.9001L20.0135 21.8019L20.0102 21.9002C20.0115 21.9002 20.0129 21.9003 20.0142 21.9003C19.89 21.9051 19.7678 21.869 19.6672 21.7979C19.5655 21.7259 19.4919 21.6224 19.4587 21.5043L19.4578 21.5013L19.4572 21.4982C19.1542 20.0743 17.9796 19.0261 16.5903 19.0261C15.2009 19.0261 14.0243 20.0744 13.7213 21.4982L13.7207 21.5012L13.7199 21.5041C13.6868 21.6224 13.6133 21.7261 13.5115 21.7981C13.4108 21.8693 13.2885 21.9053 13.1642 21.9003Z" fill="url(#paint14_linear_54_981)"/>
<path d="M36.4492 19.502C36.4516 20.2009 36.3127 20.8934 36.0403 21.54C36.0016 21.6207 35.9394 21.6884 35.8615 21.735C35.7836 21.7815 35.6933 21.8047 35.602 21.8017C35.4994 21.8064 35.3981 21.7769 35.315 21.718C35.2319 21.6592 35.1718 21.5746 35.1446 21.4781C34.8336 20.0164 33.6238 18.9275 32.1778 18.9275C30.7317 18.9275 29.522 20.0164 29.2109 21.4781C29.1839 21.5747 29.1239 21.6594 29.0407 21.7183C28.9575 21.7771 28.8562 21.8065 28.7535 21.8017C28.6623 21.8046 28.5723 21.7814 28.4945 21.7348C28.4168 21.6883 28.3548 21.6206 28.3163 21.54C28.0437 20.8938 27.9043 20.2016 27.9063 19.503C27.9063 16.8708 29.8188 14.7373 32.1778 14.7373C34.5367 14.7373 36.4492 16.8698 36.4492 19.502Z" fill="url(#paint15_radial_54_981)"/>
<path d="M36.4492 19.502C36.4516 20.2009 36.3127 20.8934 36.0403 21.54C36.0016 21.6207 35.9394 21.6884 35.8615 21.735C35.7836 21.7815 35.6933 21.8047 35.602 21.8017C35.4994 21.8064 35.3981 21.7769 35.315 21.718C35.2319 21.6592 35.1718 21.5746 35.1446 21.4781C34.8336 20.0164 33.6238 18.9275 32.1778 18.9275C30.7317 18.9275 29.522 20.0164 29.2109 21.4781C29.1839 21.5747 29.1239 21.6594 29.0407 21.7183C28.9575 21.7771 28.8562 21.8065 28.7535 21.8017C28.6623 21.8046 28.5723 21.7814 28.4945 21.7348C28.4168 21.6883 28.3548 21.6206 28.3163 21.54C28.0437 20.8938 27.9043 20.2016 27.9063 19.503C27.9063 16.8708 29.8188 14.7373 32.1778 14.7373C34.5367 14.7373 36.4492 16.8698 36.4492 19.502Z" fill="url(#paint16_radial_54_981)"/>
<path fill-rule="evenodd" clip-rule="evenodd" d="M32.1767 14.8359C29.886 14.8359 28.0062 16.9124 28.0062 19.5032L28.0062 19.5034C28.0043 20.1884 28.1407 20.867 28.4076 21.5006C28.4379 21.5629 28.4861 21.6152 28.5463 21.6512C28.6072 21.6877 28.6777 21.7059 28.7491 21.7036L28.7524 21.8019L28.7573 21.7036C28.837 21.7074 28.9157 21.6846 28.9803 21.6389C29.0441 21.5938 29.0903 21.529 29.1117 21.4551C29.4318 19.9573 30.676 18.8294 32.1767 18.8294C33.6774 18.8294 34.9215 19.9573 35.2417 21.4551C35.2632 21.5289 35.3095 21.5936 35.3733 21.6387C35.4379 21.6844 35.5165 21.7073 35.5962 21.7036L35.6009 21.8019L35.6043 21.7036C35.6759 21.7059 35.7466 21.6877 35.8076 21.6513C35.868 21.6152 35.9164 21.5629 35.9468 21.5006C36.2135 20.8666 36.3495 20.1877 36.3472 19.5025L36.3472 19.5022C36.3472 16.9114 34.4674 14.8359 32.1767 14.8359ZM35.6016 21.9003C35.4774 21.9051 35.3552 21.869 35.2546 21.7979C35.1529 21.7259 35.0794 21.6224 35.0461 21.5043L35.0453 21.5013L35.0446 21.4982C34.7416 20.0743 33.567 19.0261 32.1767 19.0261C30.7864 19.0261 29.6117 20.0743 29.3088 21.4982L29.3081 21.5012L29.3073 21.5041C29.2742 21.6224 29.2007 21.7261 29.0989 21.7981C28.9983 21.8693 28.8759 21.9053 28.7516 21.9003C28.6421 21.9031 28.534 21.8748 28.4406 21.8189C28.346 21.7623 28.2706 21.6798 28.2237 21.5818L28.2227 21.5797L28.2218 21.5776C27.9442 20.9195 27.8023 20.2146 27.8042 19.503C27.8043 16.8296 29.7496 14.6392 32.1767 14.6392C34.6037 14.6392 36.5491 16.8286 36.5492 19.5021C36.5492 19.5021 36.5492 19.5022 36.5492 19.5022H36.4482L36.5492 19.5019C36.5492 19.5019 36.5492 19.502 36.5492 19.5021C36.5515 20.2138 36.41 20.9191 36.1326 21.5776L36.1317 21.5798L36.1307 21.5819C36.0836 21.68 36.0079 21.7624 35.9132 21.819C35.8195 21.8749 35.7113 21.9031 35.6016 21.9003Z" fill="url(#paint17_linear_54_981)"/>
<defs>
<filter id="filter0_f_54_981" x="-25.1831" y="-2.22314" width="98.978" height="75.2393" filterUnits="userSpaceOnUse" color-interpolation-filters="sRGB">
<feFlood flood-opacity="0" result="BackgroundImageFix"/>
<feBlend mode="normal" in="SourceGraphic" in2="BackgroundImageFix" result="shape"/>
<feGaussianBlur stdDeviation="12.5" result="effect1_foregroundBlur_54_981"/>
</filter>
<filter id="filter1_f_54_981" x="-40.1831" y="-17.2231" width="128.978" height="105.239" filterUnits="userSpaceOnUse" color-interpolation-filters="sRGB">
<feFlood flood-opacity="0" result="BackgroundImageFix"/>
<feBlend mode="normal" in="SourceGraphic" in2="BackgroundImageFix" result="shape"/>
<feGaussianBlur stdDeviation="20" result="effect1_foregroundBlur_54_981"/>
</filter>
<filter id="filter2_f_54_981" x="-51.4678" y="-19.394" width="151.621" height="126.394" filterUnits="userSpaceOnUse" color-interpolation-filters="sRGB">
<feFlood flood-opacity="0" result="BackgroundImageFix"/>
<feBlend mode="normal" in="SourceGraphic" in2="BackgroundImageFix" result="shape"/>
<feGaussianBlur stdDeviation="27.5" result="effect1_foregroundBlur_54_981"/>
</filter>
<filter id="filter3_f_54_981" x="16.7407" y="27.6064" width="33.459" height="32.4336" filterUnits="userSpaceOnUse" color-interpolation-filters="sRGB">
<feFlood flood-opacity="0" result="BackgroundImageFix"/>
<feBlend mode="normal" in="SourceGraphic" in2="BackgroundImageFix" result="shape"/>
<feGaussianBlur stdDeviation="4" result="effect1_foregroundBlur_54_981"/>
</filter>
<filter id="filter4_f_54_981" x="-1.51416" y="27.6055" width="33.4585" height="32.4341" filterUnits="userSpaceOnUse" color-interpolation-filters="sRGB">
<feFlood flood-opacity="0" result="BackgroundImageFix"/>
<feBlend mode="normal" in="SourceGraphic" in2="BackgroundImageFix" result="shape"/>
<feGaussianBlur stdDeviation="4" result="effect1_foregroundBlur_54_981"/>
</filter>
<filter id="filter5_f_54_981" x="16.7407" y="27.6064" width="33.459" height="32.4336" filterUnits="userSpaceOnUse" color-interpolation-filters="sRGB">
<feFlood flood-opacity="0" result="BackgroundImageFix"/>
<feBlend mode="normal" in="SourceGraphic" in2="BackgroundImageFix" result="shape"/>
<feGaussianBlur stdDeviation="4" result="effect1_foregroundBlur_54_981"/>
</filter>
<filter id="filter6_f_54_981" x="-1.51416" y="27.6055" width="33.4585" height="32.4341" filterUnits="userSpaceOnUse" color-interpolation-filters="sRGB">
<feFlood flood-opacity="0" result="BackgroundImageFix"/>
<feBlend mode="normal" in="SourceGraphic" in2="BackgroundImageFix" result="shape"/>
<feGaussianBlur stdDeviation="4" result="effect1_foregroundBlur_54_981"/>
</filter>
<radialGradient id="paint0_radial_54_981" cx="0" cy="0" r="1" gradientUnits="userSpaceOnUse" gradientTransform="translate(24.3364) rotate(90) scale(47.4106 48.6727)">
<stop stop-color="#FFDE43"/>
<stop offset="1" stop-color="#FFBC00"/>
</radialGradient>
<radialGradient id="paint1_radial_54_981" cx="0" cy="0" r="1" gradientUnits="userSpaceOnUse" gradientTransform="translate(24.3364 6.34436) rotate(90) scale(41.0662 42.1595)">
<stop stop-color="white" stop-opacity="0.5"/>
<stop offset="0.782278"/>
</radialGradient>
<radialGradient id="paint2_radial_54_981" cx="0" cy="0" r="1" gradientUnits="userSpaceOnUse" gradientTransform="translate(24.3364 6.34436) rotate(90) scale(41.0662 42.1595)">
<stop stop-color="white" stop-opacity="0.5"/>
<stop offset="0.782278"/>
</radialGradient>
<radialGradient id="paint3_radial_54_981" cx="0" cy="0" r="1" gradientUnits="userSpaceOnUse" gradientTransform="translate(24.3364 -5.16401) rotate(90) scale(52.5746 72.9924)">
<stop offset="0.0922635" stop-color="white"/>
<stop offset="0.670207" stop-color="white" stop-opacity="0"/>
</radialGradient>
<radialGradient id="paint4_radial_54_981" cx="0" cy="0" r="1" gradientUnits="userSpaceOnUse" gradientTransform="translate(24.3364) rotate(90) scale(47.4106 48.6727)">
<stop stop-color="#FFDE43"/>
<stop offset="1" stop-color="#FFBC00"/>
</radialGradient>
<radialGradient id="paint5_radial_54_981" cx="0" cy="0" r="1" gradientUnits="userSpaceOnUse" gradientTransform="translate(34.9856 43.3953) rotate(-170.257) scale(9.29156 9.0646)">
<stop offset="0.0139674" stop-color="#FFDE43"/>
<stop offset="0.3975" stop-color="#FFDC41"/>
<stop offset="0.6038" stop-color="#FFD43B"/>
<stop offset="0.7679" stop-color="#FFC631"/>
<stop offset="0.9089" stop-color="#FFB323"/>
<stop offset="1" stop-color="#FFA216"/>
</radialGradient>
<radialGradient id="paint6_radial_54_981" cx="0" cy="0" r="1" gradientUnits="userSpaceOnUse" gradientTransform="translate(13.7004 43.3943) rotate(-9.74314) scale(9.29156 9.0646)">
<stop offset="0.0139674" stop-color="#FFDE43"/>
<stop offset="0.3975" stop-color="#FFDC41"/>
<stop offset="0.6038" stop-color="#FFD43B"/>
<stop offset="0.7679" stop-color="#FFC631"/>
<stop offset="0.9089" stop-color="#FFB323"/>
<stop offset="1" stop-color="#FFA216"/>
</radialGradient>
<radialGradient id="paint7_radial_54_981" cx="0" cy="0" r="1" gradientUnits="userSpaceOnUse" gradientTransform="translate(34.9856 43.3953) rotate(-170.257) scale(9.29156 9.0646)">
<stop offset="0.0139674" stop-color="#FFDE43"/>
<stop offset="0.3975" stop-color="#FFDC41"/>
<stop offset="0.6038" stop-color="#FFD43B"/>
<stop offset="0.7679" stop-color="#FFC631"/>
<stop offset="0.9089" stop-color="#FFB323"/>
<stop offset="1" stop-color="#FFA216"/>
</radialGradient>
<radialGradient id="paint8_radial_54_981" cx="0" cy="0" r="1" gradientUnits="userSpaceOnUse" gradientTransform="translate(34.9856 43.3953) rotate(-170.257) scale(9.29156 9.0646)">
<stop offset="0.0139674" stop-color="#FFDE43"/>
<stop offset="0.3975" stop-color="#FFDC41"/>
<stop offset="0.6038" stop-color="#FFD43B"/>
<stop offset="0.7679" stop-color="#FFC631"/>
<stop offset="0.9089" stop-color="#FFB323"/>
<stop offset="1" stop-color="#FFA216"/>
</radialGradient>
<radialGradient id="paint9_radial_54_981" cx="0" cy="0" r="1" gradientUnits="userSpaceOnUse" gradientTransform="translate(13.6999 43.3943) rotate(-9.74314) scale(9.29156 9.0646)">
<stop offset="0.0139674" stop-color="#FFDE43"/>
<stop offset="0.3975" stop-color="#FFDC41"/>
<stop offset="0.6038" stop-color="#FFD43B"/>
<stop offset="0.7679" stop-color="#FFC631"/>
<stop offset="0.9089" stop-color="#FFB323"/>
<stop offset="1" stop-color="#FFA216"/>
</radialGradient>
<radialGradient id="paint10_radial_54_981" cx="0" cy="0" r="1" gradientUnits="userSpaceOnUse" gradientTransform="translate(13.7004 43.3943) rotate(-9.74314) scale(9.29156 9.0646)">
<stop offset="0.0139674" stop-color="#FFDE43"/>
<stop offset="0.3975" stop-color="#FFDC41"/>
<stop offset="0.6038" stop-color="#FFD43B"/>
<stop offset="0.7679" stop-color="#FFC631"/>
<stop offset="0.9089" stop-color="#FFB323"/>
<stop offset="1" stop-color="#FFA216"/>
</radialGradient>
<radialGradient id="paint11_radial_54_981" cx="0" cy="0" r="1" gradientUnits="userSpaceOnUse" gradientTransform="translate(24.3616 30.384) scale(8.25128 6.56065)">
<stop stop-color="#743C1C"/>
<stop offset="1" stop-color="#401C02"/>
</radialGradient>
<linearGradient id="paint12_linear_54_981" x1="24.3619" y1="33.9573" x2="24.3619" y2="26.8094" gradientUnits="userSpaceOnUse">
<stop offset="0.265625" stop-color="#FFDE43"/>
<stop offset="1" stop-color="#F79D14"/>
</linearGradient>
<radialGradient id="paint13_radial_54_981" cx="0" cy="0" r="1" gradientUnits="userSpaceOnUse" gradientTransform="translate(16.5834 18.2674) scale(5.44386 3.53857)">
<stop stop-color="#743C1C"/>
<stop offset="1" stop-color="#401C02"/>
</radialGradient>
<linearGradient id="paint14_linear_54_981" x1="16.5893" y1="22.1051" x2="16.5893" y2="14.4055" gradientUnits="userSpaceOnUse">
<stop stop-color="#FFDE43"/>
<stop offset="0.22" stop-color="#FED93F"/>
<stop offset="0.51" stop-color="#FCC934"/>
<stop offset="0.82" stop-color="#F9AF21"/>
<stop offset="1" stop-color="#F79D14"/>
</linearGradient>
<radialGradient id="paint15_radial_54_981" cx="0" cy="0" r="1" gradientUnits="userSpaceOnUse" gradientTransform="translate(2817.63 -4116.16) scale(355.817 258.942)">
<stop stop-color="#743C1C"/>
<stop offset="1" stop-color="#401C02"/>
</radialGradient>
<radialGradient id="paint16_radial_54_981" cx="0" cy="0" r="1" gradientUnits="userSpaceOnUse" gradientTransform="translate(32.1719 18.2674) scale(5.44514 3.53857)">
<stop stop-color="#743C1C"/>
<stop offset="1" stop-color="#401C02"/>
</radialGradient>
<linearGradient id="paint17_linear_54_981" x1="32.1767" y1="22.1051" x2="32.1767" y2="14.4055" gradientUnits="userSpaceOnUse">
<stop stop-color="#FFDE43"/>
<stop offset="0.22" stop-color="#FED93F"/>
<stop offset="0.51" stop-color="#FCC934"/>
<stop offset="0.82" stop-color="#F9AF21"/>
<stop offset="1" stop-color="#F79D14"/>
</linearGradient>
</defs>
</svg>
