<svg width="52" height="52" viewBox="0 0 52 52" fill="none" xmlns="http://www.w3.org/2000/svg">
<path d="M15.1645 43.5669C15.1252 43.5669 15.0823 43.5598 15.0395 43.5492C10.7377 42.2493 6.07865 37.5884 5.06754 33.5755C5.01033 33.3488 5.14967 33.1222 5.37474 33.0654C5.60342 33.0088 5.8321 33.1469 5.88932 33.3701C6.82182 37.0712 11.3022 41.5374 15.2859 42.7452C15.5111 42.8125 15.6361 43.0462 15.5682 43.2693C15.5146 43.45 15.3467 43.5669 15.1645 43.5669Z" fill="#975500"/>
<path d="M17.215 48.8547C17.1828 48.8547 17.1507 48.8512 17.1185 48.844C13.5599 48.0223 9.42253 45.3873 5.77102 41.6117C2.35532 38.0841 0.143714 34.3297 0.000801353 31.8151C-0.0134932 31.5848 0.165148 31.383 0.400959 31.3724C0.633197 31.3582 0.836853 31.5353 0.847574 31.769C0.9762 34.0571 3.14849 37.6909 6.38198 41.0308C9.92268 44.6931 13.9065 47.2396 17.3114 48.0259C17.5401 48.079 17.6831 48.3057 17.6295 48.5323C17.583 48.7236 17.4079 48.8547 17.215 48.8547Z" fill="#975500"/>
<path d="M35.4544 12.0521C35.2651 12.0521 35.0935 11.9282 35.0435 11.7404C34.4468 9.49498 31.735 6.27191 29.2662 5.64149C29.0411 5.58477 28.9017 5.35459 28.9625 5.1279C29.0233 4.90121 29.2519 4.76666 29.4805 4.82686C32.2603 5.53878 35.1971 9.01324 35.8653 11.528C35.926 11.7511 35.7903 11.9813 35.5616 12.0415C35.5259 12.0486 35.4902 12.0521 35.4544 12.0521Z" fill="#975500"/>
<path d="M40.8034 12.7992C40.614 12.7992 40.4425 12.6717 40.3925 12.4839C38.8025 6.27869 32.8573 1.43708 29.463 0.834973C29.2308 0.792471 29.0807 0.576425 29.12 0.346208C29.1629 0.115983 29.3808 -0.032771 29.613 0.00618885C33.311 0.664964 39.5136 5.65533 41.2143 12.2749C41.2714 12.5016 41.1357 12.7283 40.907 12.785C40.8712 12.7956 40.8391 12.7992 40.8034 12.7992Z" fill="#975500"/>
<path d="M30.2448 23.8246C30.9273 24.5719 31.5418 25.553 31.2809 25.8115C31.0201 26.0701 30.2198 25.6026 29.6089 24.9934C28.9979 24.3877 27.5366 30.8338 27.3937 31.1596C27.2865 31.4041 25.5858 33.3378 24.6962 35.176C24.3996 35.7888 24.4425 37.6376 24.3317 37.7474C23.8851 38.1901 23.317 38.1441 22.0915 37.0709C20.866 35.9977 20.23 42.3907 21.6914 43.4001C24.1888 45.1285 29.1837 51.9961 35.7828 51.9961C43.418 51.9961 50.4889 44.1014 50.4889 38.307C50.4889 32.5126 48.7738 30.3167 48.8882 25.4609C48.9811 21.3489 52.0001 19.3867 52.0001 17.3325C52.0001 15.6041 49.4098 15.1826 48.5595 15.1826C47.0517 15.1826 43.1858 17.0988 43.1858 22.1423C43.1858 24.1044 42.6214 25.8788 40.5955 25.8788C38.5697 25.8788 36.3081 23.1234 34.9396 20.9735" fill="url(#paint0_linear_54_23807)"/>
<path d="M51.9969 17.3331C51.9969 16.3945 51.2288 15.842 50.3927 15.5303C51.3966 18.8277 46.3053 18.9694 46.3053 30.204C46.3053 41.4385 39.7062 44.7076 36.9729 45.2707C34.2396 45.8304 29.4234 45.9933 25.7576 41.5342C24.6322 40.1635 23.1066 38.6759 21.4094 37.2699C20.6913 38.4564 20.5377 42.6038 21.6917 43.4007C24.1892 45.1291 29.184 51.9966 35.7832 51.9966C43.4184 51.9966 50.4891 44.1019 50.4891 38.3076C50.4891 32.5132 48.7742 30.3173 48.8885 25.4615C48.9814 21.3495 51.9969 19.3873 51.9969 17.3331Z" fill="url(#paint1_linear_54_23807)"/>
<path d="M22.0922 37.0714C20.8667 35.9982 17.9691 32.9381 16.0827 31.4399C14.1962 29.9453 12.549 29.963 11.4164 31.6135C10.2838 33.264 13.5852 36.1612 14.339 36.9084C15.4931 38.0524 20.2307 42.3912 21.692 43.4041" fill="url(#paint2_linear_54_23807)"/>
<path d="M27.3948 31.1597C27.2518 31.4856 26.2907 31.7122 24.3792 29.6509C22.918 28.0748 19.0056 23.5448 16.6975 21.4905C14.3894 19.4364 12.5959 18.5934 11.088 19.6701C9.58031 20.7468 10.4378 22.9852 12.1242 24.8553C14.2108 27.168 16.6118 29.5269 18.9092 31.7937C20.7063 33.5645 24.7758 37.3082 24.3292 37.751" fill="url(#paint3_linear_54_23807)"/>
<path d="M18.9119 31.7906C20.609 33.4623 24.3249 36.8872 24.3641 37.6416C24.9001 36.8129 23.9211 34.3478 22.8849 33.4836C16.8968 28.4861 11.1123 20.4285 10.3763 20.6693C10.0619 21.8417 10.8586 23.4497 12.1234 24.8557C14.21 27.165 16.611 29.5274 18.9119 31.7906Z" fill="url(#paint4_linear_54_23807)"/>
<path d="M34.9366 20.9773C33.5682 18.8274 27.9587 11.9139 26.5938 9.95175C25.2254 7.98953 23.3889 7.98953 22.117 8.87858C20.8451 9.76755 20.4663 11.542 23.3318 15.314C25.1397 17.6941 26.6403 19.8829 30.2489 23.8284L34.4435 23.538L34.9366 20.9773Z" fill="url(#paint5_linear_54_23807)"/>
<path d="M29.6093 24.994C28.9983 24.3883 23.5782 18.0202 22.3527 16.6531C20.0554 14.0958 17.1435 8.61668 13.6706 11.057C11.8449 12.3391 12.8346 14.1985 13.3526 14.9459C13.8707 15.6932 20.6092 23.4037 21.2701 24.0554C21.9312 24.7106 27.537 30.8309 27.3977 31.1567" fill="url(#paint6_linear_54_23807)"/>
<path d="M30.2453 23.8248C30.9028 24.5438 31.4923 25.4753 31.3065 25.7764C33.4931 24.0338 28.8698 18.9124 26.2509 15.8381C24.2251 13.458 23.6712 10.4298 22.2206 8.80762C22.1849 8.8289 22.1528 8.85369 22.117 8.87489C20.8451 9.76394 20.4663 11.5384 23.3318 15.3104C25.1361 17.6905 26.6403 19.8829 30.2453 23.8248Z" fill="url(#paint7_linear_54_23807)"/>
<path d="M21.2666 24.0583C21.9276 24.7135 27.5334 30.8338 27.3941 31.1596C29.1269 28.8469 22.4099 22.0501 19.1586 18.6146C16.3396 15.6359 15.8572 13.0292 13.1061 11.5664C12.0842 12.7919 12.8953 14.2936 13.349 14.9488C13.8671 15.6962 20.6092 23.4066 21.2666 24.0583Z" fill="url(#paint8_linear_54_23807)"/>
<path d="M27.2694 31.2985C27.0729 31.4189 26.6692 31.4294 26.0439 31.0718C26.5084 31.4437 26.9371 31.5853 27.2694 31.2985Z" fill="url(#paint9_linear_54_23807)"/>
<path d="M48.9558 15.8839C50.3957 15.6288 50.6494 15.7918 50.3921 15.5297C49.6918 15.2712 48.9415 15.1826 48.5557 15.1826C47.0479 15.1826 43.182 17.0988 43.182 22.1423C43.182 24.1044 42.6175 25.8788 40.5881 25.8788C39.7878 25.8788 38.9553 25.4503 38.1514 24.7986C41.71 28.7052 44.5004 25.0253 44.9256 22.5035C45.3508 19.9818 44.7326 16.6347 48.9558 15.8839Z" fill="url(#paint10_radial_54_23807)"/>
<path d="M21.6805 9.25732C20.8016 10.2455 20.8302 12.0164 23.3277 15.3103C25.1356 17.6904 26.6362 19.8792 30.2448 23.8247C30.9272 24.5721 31.5417 25.5532 31.2809 25.8117C31.8848 21.7245 26.0145 17.7045 24.1066 14.6231C22.5953 12.1794 22.2951 10.7378 21.6805 9.25732Z" fill="url(#paint11_linear_54_23807)"/>
<path d="M21.2668 24.0587C21.9278 24.7139 27.5336 30.8341 27.3943 31.1599C28.6305 30.2851 27.7873 28.9215 25.8758 27.0267C21.9564 23.1413 16.5006 17.9207 14.3068 13.621C14.0996 13.2137 13.7137 12.9126 13.26 12.8559C12.0773 12.7037 12.9563 14.3789 13.3528 14.9491C13.8673 15.6965 20.6094 23.4069 21.2668 24.0587Z" fill="url(#paint12_linear_54_23807)"/>
<path d="M12.1237 24.8552C14.2102 27.1681 16.6112 29.5269 18.9086 31.7937C20.7057 33.5645 24.7753 37.3082 24.3286 37.7509C26.8511 35.6471 15.1356 28.0429 10.373 20.6724C10.0621 21.8377 10.8589 23.4492 12.1237 24.8552Z" fill="url(#paint13_linear_54_23807)"/>
<path d="M23.8141 38.1691C24.0534 38.0771 24.1785 37.9673 24.2178 37.8469C23.7855 38.1763 23.2174 38.0594 22.092 37.0712C20.8664 35.998 17.9688 32.938 16.0823 31.4398C15.2534 30.7846 14.471 30.4197 13.7563 30.356C14.7782 30.99 14.303 31.2166 16.5754 32.945C17.7974 33.873 22.2563 38.7748 23.8141 38.1691Z" fill="url(#paint14_linear_54_23807)"/>
<path d="M20.8452 26.956C22.4994 28.9535 25.7293 32.251 27.1799 31.3407C26.7797 31.4753 25.8686 31.2557 24.3823 29.6513C22.921 28.0752 19.0087 23.5452 16.7006 21.491C14.832 19.8264 13.2992 18.9586 11.9844 19.2597C15.811 20.5064 19.2767 25.0682 20.8452 26.956Z" fill="url(#paint15_linear_54_23807)"/>
<path d="M22.6348 18.3602C25.2751 21.2078 29.1947 26.857 31.1812 25.8688C30.856 25.968 30.1557 25.5394 29.6091 24.994C28.9981 24.3884 23.5781 18.0202 22.3525 16.6531C20.7591 14.8822 18.8761 11.7087 16.7109 10.7383C18.894 12.4454 20.4947 16.0545 22.6348 18.3602Z" fill="url(#paint16_linear_54_23807)"/>
<path d="M38.152 24.8021C38.1556 24.8021 38.1556 24.8021 38.152 24.8021C36.9193 23.8033 35.7617 22.2768 34.9328 20.9769C33.568 18.827 27.9586 11.9135 26.5937 9.95134C26.1757 9.35277 25.7183 8.93839 25.2432 8.67627C25.8791 9.58295 26.2399 10.8757 27.6798 12.4766C29.9879 15.0444 33.007 19.67 34.0432 21.2603C35.0757 22.8434 36.7478 26.194 38.152 24.8021Z" fill="url(#paint17_linear_54_23807)"/>
<path d="M45.7117 47.6047C44.8541 45.5363 43.6001 44.2755 41.7887 45.4584C36.8473 48.685 31.1629 47.5942 24.035 41.8847C17.6788 36.7881 14.3917 33.1472 11.2976 31.8296C10.5545 33.5048 13.6129 36.1931 14.3346 36.9085C15.4886 38.0525 20.2263 42.3912 21.6876 43.4042C24.185 45.1326 29.18 52.0001 35.7791 52.0001C39.4698 51.9966 43.0213 50.1583 45.7117 47.6047Z" fill="url(#paint18_linear_54_23807)"/>
<path d="M48.8849 25.4615C48.9778 21.3494 51.997 19.3873 51.997 17.333C51.997 16.7274 51.6789 16.2847 51.2287 15.9624C51.7789 17.5633 50.4678 18.9836 48.5098 21.3991C46.3875 24.0164 45.9195 28.0789 47.3772 32.1448C48.8385 36.2108 46.9984 41.8175 44.0294 43.592C41.0603 45.3664 37.1158 53.1689 25.8219 44.3534C25.8184 44.3499 25.8184 44.3499 25.8148 44.3463C25.1252 43.7124 24.4428 43.1492 23.7532 42.7242C18.9835 39.7951 16.2645 37.1601 14.21 34.9465C13.8063 34.5108 12.7202 32.8426 11.4268 33.3916C12.0735 34.8437 13.8135 36.3915 14.3351 36.9086C15.4892 38.0526 20.2268 42.3912 21.6881 43.4042C21.8775 43.5353 22.0847 43.6982 22.3026 43.8859C22.3598 43.9355 22.4169 43.9851 22.4742 44.0346C22.4884 44.0488 22.5063 44.063 22.5205 44.0736C22.5563 44.1055 22.5956 44.1409 22.6314 44.1728C22.6385 44.1799 22.6492 44.187 22.6564 44.1976C24.1391 45.5328 26.1792 47.7429 28.6802 49.4678C28.6802 49.4678 28.6838 49.4678 28.6838 49.4713C28.9018 49.6236 29.1269 49.7724 29.3519 49.914C29.3555 49.9176 29.3591 49.9176 29.3627 49.9211C29.5878 50.0628 29.8164 50.2009 30.0451 50.332C30.0486 50.332 30.0486 50.3355 30.0522 50.3355C31.7815 51.3202 33.7001 52.0001 35.7724 52.0001C43.4077 52.0001 50.4784 44.1055 50.4784 38.3111C50.4784 32.5167 48.7742 30.3208 48.8849 25.4615Z" fill="url(#paint19_radial_54_23807)"/>
<defs>
<linearGradient id="paint0_linear_54_23807" x1="46.7769" y1="53.4949" x2="40.5778" y2="38.8436" gradientUnits="userSpaceOnUse">
<stop offset="0.00132565" stop-color="#FFCB4B"/>
<stop offset="1" stop-color="#FFD748"/>
</linearGradient>
<linearGradient id="paint1_linear_54_23807" x1="48.0295" y1="43.3327" x2="34.9685" y2="27.616" gradientUnits="userSpaceOnUse">
<stop offset="0.00132565" stop-color="#FFCB4B"/>
<stop offset="1" stop-color="#FFD748"/>
</linearGradient>
<linearGradient id="paint2_linear_54_23807" x1="12.7574" y1="32.9437" x2="20.4859" y2="38.6846" gradientUnits="userSpaceOnUse">
<stop offset="0.00132565" stop-color="#FFCB4B"/>
<stop offset="1" stop-color="#FFD748"/>
</linearGradient>
<linearGradient id="paint3_linear_54_23807" x1="9.92629" y1="17.919" x2="23.4457" y2="32.193" gradientUnits="userSpaceOnUse">
<stop offset="0.00132565" stop-color="#FFCB4B"/>
<stop offset="1" stop-color="#FFD748"/>
</linearGradient>
<linearGradient id="paint4_linear_54_23807" x1="20.3996" y1="26.3256" x2="15.9265" y2="30.5765" gradientUnits="userSpaceOnUse">
<stop stop-color="#FFBC47" stop-opacity="0"/>
<stop offset="1" stop-color="#FFA754"/>
</linearGradient>
<linearGradient id="paint5_linear_54_23807" x1="24.6627" y1="11.2405" x2="32.4823" y2="23.6364" gradientUnits="userSpaceOnUse">
<stop offset="0.00132565" stop-color="#FFCB4B"/>
<stop offset="1" stop-color="#FFD748"/>
</linearGradient>
<linearGradient id="paint6_linear_54_23807" x1="16.4895" y1="13.2897" x2="27.114" y2="27.7681" gradientUnits="userSpaceOnUse">
<stop offset="0.00132565" stop-color="#FFCB4B"/>
<stop offset="1" stop-color="#FFD748"/>
</linearGradient>
<linearGradient id="paint7_linear_54_23807" x1="29.2692" y1="15.0258" x2="22.5359" y2="21.1578" gradientUnits="userSpaceOnUse">
<stop stop-color="#FFBC47" stop-opacity="0"/>
<stop offset="1" stop-color="#FFA754"/>
</linearGradient>
<linearGradient id="paint8_linear_54_23807" x1="23.0265" y1="19.3525" x2="13.7518" y2="26.1924" gradientUnits="userSpaceOnUse">
<stop stop-color="#FFBC47" stop-opacity="0"/>
<stop offset="1" stop-color="#FFA754"/>
</linearGradient>
<linearGradient id="paint9_linear_54_23807" x1="29.9783" y1="28.7792" x2="20.7036" y2="35.619" gradientUnits="userSpaceOnUse">
<stop stop-color="#FFBC47" stop-opacity="0"/>
<stop offset="1" stop-color="#FFA754"/>
</linearGradient>
<radialGradient id="paint10_radial_54_23807" cx="0" cy="0" r="1" gradientUnits="userSpaceOnUse" gradientTransform="translate(42.2219 17.7995) scale(11.203 11.1055)">
<stop stop-color="#FFBC47" stop-opacity="0"/>
<stop offset="1" stop-color="#FFA754"/>
</radialGradient>
<linearGradient id="paint11_linear_54_23807" x1="30.5106" y1="13.8329" x2="24.7606" y2="19.209" gradientUnits="userSpaceOnUse">
<stop offset="0.3118" stop-color="#FFBC47" stop-opacity="0"/>
<stop offset="1" stop-color="#FF8900"/>
</linearGradient>
<linearGradient id="paint12_linear_54_23807" x1="26.0723" y1="16.7197" x2="18.4972" y2="23.6066" gradientUnits="userSpaceOnUse">
<stop offset="0.3118" stop-color="#FFBC47" stop-opacity="0"/>
<stop offset="1" stop-color="#FF8900"/>
</linearGradient>
<linearGradient id="paint13_linear_54_23807" x1="23.4919" y1="24.0972" x2="14.1342" y2="32.0266" gradientUnits="userSpaceOnUse">
<stop offset="0.3118" stop-color="#FFBC47" stop-opacity="0"/>
<stop offset="1" stop-color="#FF8900"/>
</linearGradient>
<linearGradient id="paint14_linear_54_23807" x1="13.2067" y1="29.7992" x2="24.088" y2="38.7223" gradientUnits="userSpaceOnUse">
<stop stop-color="#FFBC47" stop-opacity="0"/>
<stop offset="1" stop-color="#FFBC47"/>
</linearGradient>
<linearGradient id="paint15_linear_54_23807" x1="15.3042" y1="18.8545" x2="23.7542" y2="31.8168" gradientUnits="userSpaceOnUse">
<stop stop-color="#FFBC47" stop-opacity="0"/>
<stop offset="1" stop-color="#FFBC47"/>
</linearGradient>
<linearGradient id="paint16_linear_54_23807" x1="22.0042" y1="19.7757" x2="24.3923" y2="17.9335" gradientUnits="userSpaceOnUse">
<stop stop-color="#FFBC47" stop-opacity="0"/>
<stop offset="1" stop-color="#FFA754"/>
</linearGradient>
<linearGradient id="paint17_linear_54_23807" x1="33.8654" y1="26.9737" x2="30.7137" y2="11.8255" gradientUnits="userSpaceOnUse">
<stop stop-color="#FFBC47" stop-opacity="0"/>
<stop offset="1" stop-color="#FFBC47"/>
</linearGradient>
<linearGradient id="paint18_linear_54_23807" x1="26.5489" y1="41.502" x2="21.7802" y2="45.9235" gradientUnits="userSpaceOnUse">
<stop offset="0.3118" stop-color="#FFBC47" stop-opacity="0"/>
<stop offset="1" stop-color="#FF8900"/>
</linearGradient>
<radialGradient id="paint19_radial_54_23807" cx="0" cy="0" r="1" gradientUnits="userSpaceOnUse" gradientTransform="translate(29.7334 27.0267) rotate(47.8911) scale(32.316 29.3597)">
<stop offset="0.6134" stop-color="#FFBC47" stop-opacity="0"/>
<stop offset="1" stop-color="#FF8900"/>
</radialGradient>
</defs>
</svg>
